<?xml version="1.0" standalone="no"?>
<!DOCTYPE svg PUBLIC "-//W3C//DTD SVG 20010904//EN"
 "http://www.w3.org/TR/2001/REC-SVG-20010904/DTD/svg10.dtd">
<svg version="1.0" xmlns="http://www.w3.org/2000/svg"
 width="700.000000pt" height="700.000000pt" viewBox="0 0 700.000000 700.000000"
 preserveAspectRatio="xMidYMid meet">
<metadata>
Created by potrace 1.11, written by Peter Selinger 2001-2013
</metadata>
<g transform="translate(0.000000,700.000000) scale(0.100000,-0.100000)"
fill="#000000" stroke="none">
<path d="M1894 6743 c-17 -21 -66 -85 -109 -143 -44 -58 -84 -110 -90 -116 -5
-7 -19 -24 -30 -39 -24 -33 -321 -423 -339 -445 -6 -9 -32 -42 -56 -75 -25
-33 -49 -65 -55 -71 -5 -7 -18 -22 -27 -35 -23 -31 -235 -310 -251 -329 -7 -9
-33 -42 -57 -75 -25 -33 -47 -62 -50 -65 -3 -3 -18 -23 -35 -45 -16 -22 -33
-44 -38 -50 -40 -47 -344 -451 -341 -453 1 -2 212 -4 468 -3 354 0 466 -3 467
-12 0 -7 2 -464 4 -1017 1 -553 5 -1014 7 -1025 3 -11 9 -42 12 -70 21 -147
84 -285 170 -370 94 -94 185 -133 337 -142 378 -23 588 205 613 667 3 47 5
509 6 1027 l0 941 470 0 c353 0 470 -2 471 -11 5 -67 0 -2137 -5 -2211 -15
-217 -65 -416 -143 -570 -33 -64 -104 -173 -138 -208 l-25 -27 0 -776 c0 -426
3 -776 8 -776 4 -1 213 -2 465 -3 298 -1 457 2 458 9 1 6 2 376 3 822 0 447 5
813 9 814 5 0 22 -19 38 -41 17 -23 56 -67 87 -97 181 -176 390 -283 640 -328
96 -17 333 -16 437 2 87 14 216 48 255 65 14 6 30 12 37 14 7 1 49 21 95 44
446 227 783 678 888 1185 29 140 32 175 36 400 3 212 -6 315 -40 470 -102 459
-437 908 -841 1124 -57 31 -193 89 -225 96 -8 2 -31 9 -50 15 -170 51 -443 57
-640 14 -41 -9 -77 -16 -80 -16 -18 0 -188 -67 -259 -102 -129 -64 -202 -113
-319 -215 -29 -25 -56 -44 -60 -41 -4 3 -7 82 -7 175 l0 170 -295 2 c-162 1
-302 2 -311 3 -9 0 -94 102 -190 227 -202 265 -291 380 -454 593 -65 85 -153
200 -195 255 -42 55 -203 265 -356 466 -153 201 -293 382 -309 403 l-30 38
-31 -39z m3061 -2688 c107 -18 230 -70 315 -132 138 -101 287 -332 335 -520
40 -157 43 -431 7 -566 -41 -151 -130 -312 -228 -413 -289 -297 -761 -318
-1047 -45 -58 55 -144 175 -186 258 -117 233 -133 588 -40 857 57 166 186 347
309 437 141 103 363 155 535 124z"/>
</g>
</svg>
